Simulation
nRows=32
nColumns=15
endheader
time  TH_x TH_y TH_z SC_y  SC_z  SC_x  AC_y  AC_z  AC_x  GH_y  GH_z  GH_yy  EL_x  PS_y
0.0  0.000000  0.000000  0.000000  -40.97484877243665  6.293857566463187  5.290427962726946  38.9147685695231  -1.2466957260969154  -7.380674257037575  89.26084563169218  7.532499151489545  -58.683226052853065  22.55768139141944  120.000000
0.05745  0.000000  0.000000  0.000000  -39.513962718765576  5.308089743220632  4.208608626841608  40.065098913508976  -1.7214681078296605  -5.987526334517799  53.66496299048986  7.218329612106968  -26.027084662731067  22.005645605099183  120.000000
0.1149  0.000000  0.000000  0.000000  -38.03534492544374  4.128844314033087  2.930258719317346  41.34557855422597  -2.3424722982771384  -4.529822446356379  25.47103551558915  9.17584345593153  -0.7643632962536728  21.631490370729527  120.000000
0.17235  0.000000  0.000000  0.000000  -36.617552296174466  2.7304238159682717  1.4795779237281421  42.751194894929995  -3.0919420976493237  -2.952277005249759  8.642159952633104  12.404421999230506  13.108113774480348  21.512161371716715  120.000000
0.2298  0.000000  0.000000  0.000000  -35.349312495385796  1.0912251466284415  -0.08710529901119238  44.30509235787283  -3.933789196988365  -1.2033865900065608  -1.7468851120774642  16.385734370029553  20.506842652496246  21.656596865267883  120.000000
0.28725  0.000000  0.000000  0.000000  -34.28579962890703  -0.7573648946370962  -1.7021575593990006  46.016694506029665  -4.825649249042362  0.7061271766516825  -8.756753273956573  20.992615996342057  24.505907131787165  22.00903418348084  120.000000
0.3447  0.000000  0.000000  0.000000  -33.48015550003166  -2.712649929947648  -3.260090936778446  47.82649415133419  -5.747290332114538  2.7104875519686975  -13.790251845294696  26.168523970891638  26.533619436059436  22.471050806563497  120.000000
0.40215  0.000000  0.000000  0.000000  -32.96877790577793  -4.615128709388404  -4.649148022479583  49.62885126687812  -6.67579157318226  4.723961793488985  -17.538193553417575  31.81630955261728  27.308021276843068  22.922551015092587  120.000000
0.4596  0.000000  0.000000  0.000000  -32.76457581079439  -6.243393712510374  -5.810686928974264  51.33830846852924  -7.564836781631661  6.7053112888341735  -20.363965754995252  37.76016657891693  27.218746386753246  23.263086244131767  120.000000
0.51705  0.000000  0.000000  0.000000  -32.82997118141212  -7.406975047086223  -6.80348872462228  52.93175500985293  -8.251410356524467  8.694247386019166  -22.47932569617281  43.75629012707431  26.50234241527065  23.425517889223183  120.000000
0.5745  0.000000  0.000000  0.000000  -33.09749998558493  -7.984397977419689  -7.731917380175205  54.4413113405783  -8.492433591025788  10.729757211249401  -24.01375724024501  49.5302124482509  25.31283240339369  23.391278054821996  120.000000
0.63195  0.000000  0.000000  0.000000  -33.538759312279  -7.93250140587956  -8.664136144713238  55.90134136329321  -8.076866234209918  12.786694527224096  -25.054502843843707  54.81758010690512  23.7636409946812  23.17782931098739  120.000000
0.6894  0.000000  0.000000  0.000000  -34.182049978200254  -7.273102750805175  -9.645146372637265  57.32475984168613  -6.875866377768218  14.815156130419187  -25.675218563920897  59.4006077272498  21.957639928452867  22.82174862603489  120.000000
0.74685  0.000000  0.000000  0.000000  -35.052666798739615  -6.08245761762275  -10.681458818449697  58.70419403878343  -4.846985917348308  16.769889633760254  -25.976968643826613  63.1379901750687  20.024880505235306  22.372537730894738  120.000000
0.8043  0.000000  0.000000  0.000000  -36.116412405483516  -4.4854724776136905  -11.729772383307425  60.00610062320104  -2.0324441444686445  18.606578562056864  -26.077346033513017  65.96364740666961  18.083829855142035  21.87830635005139  120.000000
0.86175  0.000000  0.000000  0.000000  -37.288486334128336  -2.6323217728317223  -12.708273399797356  61.15557800503006  1.4433051643166444  20.26570553091911  -26.034020539915694  67.86166134109956  16.140715691634576  21.37055996593661  120.000000
0.9192  0.000000  0.000000  0.000000  -38.47705348336041  -0.673930528195798  -13.515759977545173  62.064320461584224  5.384877550722663  21.689736485244666  -25.836418138726753  68.88562923179245  14.117695749488265  20.862374977806798  120.000000
0.97665  0.000000  0.000000  0.000000  -39.62439866063898  1.257559703735855  -14.049122196500761  62.68023619295901  9.536981058935362  22.863172444425548  -25.47867919483445  69.1974658646875  11.989105006900736  20.366592079153758  120.000000
1.0341  0.000000  0.000000  0.000000  -40.71369590468184  3.0675841159510044  -14.218243859847405  62.99198556251808  13.610862751419546  23.817971986447198  -24.972833099562376  69.02735141293039  9.819200629954999  19.89724244520339  120.000000
1.09155  0.000000  0.000000  0.000000  -41.7493152026832  4.714055607101298  -13.953126469826653  63.03652325225068  17.323437555014323  24.604999380451567  -24.329497030227465  68.61070988128144  7.721186643695611  19.461261238421855  120.000000
1.149  0.000000  0.000000  0.000000  -42.740920297810284  6.194830122928165  -13.210226058817383  62.881790739011024  20.451297448136923  25.264463560168853  -23.571423836501843  68.13850512791036  5.8257272426112765  19.057243443738802  120.000000
1.20645  0.000000  0.000000  0.000000  -43.70183153370867  7.520721796666024  -11.99077416605574  62.61360776307985  22.86518391603229  25.810527086474707  -22.737495885930556  67.7347174055687  4.242812993711804  18.67953919975288  120.000000
1.2639  0.000000  0.000000  0.000000  -44.643833045630736  8.695200978216414  -10.357059052275298  62.32006916717717  24.54707167234942  26.236118637952952  -21.874442527932676  67.45022011684895  3.0267384901905316  18.324442061145465  120.000000
1.32135  0.000000  0.000000  0.000000  -45.56333940510184  9.7024815719153  -8.443777476632293  62.0672468302147  25.576295795798412  26.529843506258008  -21.028603905913567  67.27753820698024  2.1638111247198495  17.994323459347562  120.000000
1.3788  0.000000  0.000000  0.000000  -46.42863751030203  10.515370368628682  -6.447437942013006  61.890807801700866  26.090664345446086  26.68759230023913  -20.244245547531666  67.17461705616894  1.5842245332841023  17.697019829063755  120.000000
1.43625  0.000000  0.000000  0.000000  -47.178644774271724  11.11072533761832  -4.592722575179961  61.800501196159864  26.23743865477693  26.71453024631981  -19.561404326347958  67.09517577436029  1.1894315061136171  17.44281790196653  120.000000
1.4937  0.000000  0.000000  0.000000  -47.7400606662181  11.476354439115994  -3.093300794687449  61.79405592427804  26.13861386223094  26.6222369825814  -19.01697309025321  67.01397694802559  0.8824601994932925  17.24148986403298  120.000000
1.55115  0.000000  0.000000  0.000000  -48.0480455160929  11.611622586025435  -2.1269966360538306  61.87099763289815  25.875511662260642  26.426588644870986  -18.643058950806484  66.93508451051747  0.5905887388598909  17.099918665563333  120.000000
1.6086  0.000000  0.000000  0.000000  -48.066221225704005  11.522247270206133  -1.813330172877704  62.039062729875994  25.486491889597083  26.15157583090092  -18.463973381512364  66.87691838673645  0.27742236755001076  17.02195405065516  120.000000
1.66605  0.000000  0.000000  0.000000  -47.79891625723588  11.218091690196509  -2.1918965240779915  62.30474968139558  24.97787801063655  25.83736015126849  -18.496395833193997  66.84001745880296  -0.053472486051824704  17.007626040851004  120.000000
1.7235  0.000000  0.000000  0.000000  -47.291438405760935  10.711277965750307  -3.216417925257919  62.667751102206346  24.330307321939813  25.540718147049816  -18.743769224203554  66.80356746705155  -0.3673725544017968  17.050212285524648  120.000000
1.78095  0.000000  0.000000  0.000000  -46.611871348167696  10.01437589172098  -4.770449154225579  63.12066011036252  23.497438780352322  25.32169205551936  -19.190803249789333  66.75607568540313  -0.6156686446127269  17.13268409348403  120.000000
